<?xml version="1.0" encoding="utf-8"?>
<!-- Generator: Adobe Illustrator 16.0.0, SVG Export Plug-In . SVG Version: 6.00 Build 0)  -->
<!DOCTYPE svg PUBLIC "-//W3C//DTD SVG 1.1//EN" "http://www.w3.org/Graphics/SVG/1.1/DTD/svg11.dtd">
<svg version="1.1" id="Ebene_1" xmlns="http://www.w3.org/2000/svg" xmlns:xlink="http://www.w3.org/1999/xlink" x="0px" y="0px"
	 width="800px" height="600px" viewBox="0 0 800 600" enable-background="new 0 0 800 600" xml:space="preserve">
<path d="M654.255,277.586c-26.091-5.438-45.46-8.173-58.123-8.173h-76.033l-58.341-69.179h14.747
	c12.438,0,18.675-5.325,18.675-16.051c0-12.221-11.596-18.352-34.733-18.352h-24.259l-36.705-48.813h17.37
	c11.562,0,17.37-5.367,17.37-16.059c0-12.263-8.061-18.352-24.26-18.352h-35.392C333.685,27.55,307.925,0,297.205,0
	c-4.995,0-10.397,2.041-16.199,6.096c-5.801,4.013-8.685,8.355-8.685,12.916c0,4.595,6.167,16.458,18.5,35.575
	c12.333,19.124,30.278,54.839,53.745,107.16c23.502,52.321,35.246,83.954,35.246,94.862c0,7.009-10.474,10.832-31.485,11.491
	c-68.989,0.442-118.469,3.718-148.425,9.815c-3.507-3.066-12.081-14.157-25.726-33.24c-13.687-19.123-23.059-30.502-28.209-34.081
	c-5.143-3.612-14.227-5.437-27.359-5.437c-7.009,0-11.681,0.989-14.045,2.953c0,8.503,10.327,39.223,31.085,92.091
	c-20.759,48.091-31.085,78.776-31.085,92.084c2.372,1.973,7.043,2.962,14.045,2.962c13.132,0,22.182-1.755,27.22-5.256
	c5.03-3.465,14.409-14.852,28.167-34.073c13.757-19.229,22.4-30.355,25.907-33.429c29.956,5.438,64.584,8.391,104.06,8.833
	c39.405,0.47,61.953,1.606,67.502,3.465c5.584,1.866,8.355,4.855,8.355,8.973c0,10.728-11.744,42.289-35.246,94.723
	c-23.46,52.469-41.412,88.22-53.746,107.343c-12.333,19.117-18.5,30.972-18.5,35.568c0,4.559,2.884,8.832,8.685,12.769
	c5.802,3.941,11.204,5.914,16.199,5.914c10.727,0,36.487-27.438,77.352-82.277h35.393c16.199,0,24.258-6.132,24.258-18.352
	c0-10.728-5.801-16.052-17.369-16.052h-17.371l36.706-48.821h24.259c23.138,0,34.732-6.132,34.732-18.352
	c0-10.727-6.235-16.093-18.674-16.093h-14.747l58.341-69.138h76.032c64.872,0,97.312-10.797,97.312-32.432
	C693.442,290.066,680.373,283.058,654.255,277.586z"/>
</svg>
