<?xml version="1.0" encoding="utf-8"?>
<!-- Generator: Adobe Illustrator 16.0.0, SVG Export Plug-In . SVG Version: 6.00 Build 0)  -->
<!DOCTYPE svg PUBLIC "-//W3C//DTD SVG 1.1//EN" "http://www.w3.org/Graphics/SVG/1.1/DTD/svg11.dtd">
<svg version="1.1" id="Ebene_1" xmlns="http://www.w3.org/2000/svg" xmlns:xlink="http://www.w3.org/1999/xlink" x="0px" y="0px"
	 width="1000px" height="600px" viewBox="0 0 1000 600" enable-background="new 0 0 1000 600" xml:space="preserve">
<g>
	<path d="M227.804,280.527c0.202-1.438,0.299-2.9,0.299-4.361c0-18.236-14.836-33.083-33.083-33.083
		c-10.581,0-20.299,4.999-26.452,13.199c-2.167-0.526-4.383-0.792-6.631-0.792c-15.96,0-28.949,12.987-28.949,28.948
		c0,0.246,0.01,0.487,0.016,0.729c-1.337-0.383-2.745-0.599-4.204-0.599c-8.448,0-15.299,6.849-15.299,15.3
		c0,1.947,0.379,3.801,1.041,5.516h5.893c3.312,0,6.326,0.395,8.963,1.174c3.234,0.96,6.01,2.623,8.249,4.938
		c2.313,2.391,4.025,5.478,5.083,9.165c0.889,3.087,1.339,6.784,1.339,10.988v2.631c3.402,0.834,5.977,4.133,6.267,8.154h61.227
		c18.247,0,33.085-14.888,33.085-33.135C244.645,297.24,238.013,286.293,227.804,280.527z M70.024,344.579v5.477
		c0,0.899,0.729,1.628,1.627,1.628c1.213,0,2.184,0.111,2.873,0.328c0.519,0.164,0.878,0.389,1.096,0.687
		c0.267,0.365,0.448,0.89,0.544,1.558c0.124,0.861,0.185,1.914,0.185,3.135v3.188c0.047,2.939,0.428,5.465,1.135,7.5
		c0.734,2.139,1.859,3.897,3.344,5.226c1.469,1.313,3.318,2.262,5.494,2.819c2.052,0.524,4.496,0.789,7.267,0.789h1.814
		c0.899,0,1.627-0.729,1.627-1.628v-6.66c0-0.899-0.728-1.628-1.627-1.628h-2.085c-2.293,0-3.925-0.41-4.716-1.186
		c-0.779-0.762-1.192-2.327-1.192-4.521v-0.938c-0.053-3.457-0.008-6.595-1.293-9.334c-1.744-3.693-5.531-3.729-6.498-4.152
		c0.935-0.408,4.789-0.474,6.507-4.206c1.276-2.796,1.229-5.963,1.284-9.47v-0.827c0-0.092,0.012-0.165,0.014-0.253
		c0.033-2.062,0.436-3.56,1.191-4.313c0.517-0.519,1.426-0.856,2.611-1.041c0.625-0.096,1.302-0.165,2.091-0.165h2.085
		c0.899,0,1.627-0.729,1.627-1.628v-6.661c0-0.861-0.671-1.546-1.518-1.604c-0.038-0.002-0.071-0.021-0.11-0.021h-1.814
		c-2.769,0-5.24,0.278-7.343,0.826c-2.221,0.581-4.092,1.556-5.561,2.895c-1.486,1.354-2.6,3.151-3.311,5.341
		c-0.679,2.083-1.023,4.675-1.023,7.704v2.961c0,1.218-0.061,3.242-0.185,4.078c-0.084,0.583-0.248,1.031-0.473,1.368
		c-0.02,0.032-0.034,0.075-0.055,0.104c-0.216,0.283-0.587,0.513-1.105,0.676c-0.625,0.194-1.498,0.29-2.541,0.312
		c-0.12,0.002-0.212,0.019-0.34,0.019c-0.287,0-0.54,0.092-0.773,0.222C70.375,343.452,70.024,343.967,70.024,344.579z
		 M139.035,344.579v5.477c0,0.899-0.728,1.628-1.627,1.628c-1.214,0-2.184,0.111-2.873,0.328c-0.519,0.164-0.878,0.389-1.096,0.687
		c-0.267,0.365-0.448,0.89-0.544,1.558c-0.123,0.861-0.185,1.914-0.185,3.135v3.188c-0.047,2.939-0.428,5.465-1.134,7.5
		c-0.735,2.139-1.859,3.897-3.344,5.226c-1.469,1.313-3.319,2.262-5.494,2.819c-2.052,0.524-4.496,0.789-7.267,0.789h-1.814
		c-0.899,0-1.628-0.729-1.628-1.628v-6.66c0-0.899,0.729-1.628,1.628-1.628h2.085c2.293,0,3.925-0.41,4.716-1.186
		c0.78-0.762,1.192-2.327,1.192-4.521v-0.938c0.053-3.457,0.008-6.595,1.294-9.334c1.743-3.693,5.531-3.729,6.497-4.152
		c-0.935-0.408-4.789-0.474-6.507-4.206c-1.276-2.796-1.229-5.963-1.284-9.47v-0.827c0-0.092-0.012-0.165-0.014-0.253
		c-0.033-2.062-0.436-3.56-1.192-4.313c-0.516-0.519-1.425-0.856-2.611-1.041c-0.625-0.096-1.302-0.165-2.091-0.165h-2.085
		c-0.899,0-1.628-0.729-1.628-1.628v-6.661c0-0.861,0.671-1.546,1.518-1.604c0.037-0.002,0.07-0.021,0.11-0.021h1.814
		c2.769,0,5.24,0.278,7.343,0.826c2.221,0.581,4.092,1.556,5.561,2.895c1.486,1.354,2.6,3.151,3.311,5.341
		c0.679,2.083,1.023,4.675,1.023,7.704v2.961c0,1.218,0.061,3.242,0.185,4.078c0.084,0.583,0.248,1.031,0.473,1.368
		c0.02,0.032,0.034,0.075,0.055,0.104c0.215,0.283,0.587,0.513,1.105,0.676c0.625,0.194,1.498,0.29,2.541,0.312
		c0.12,0.002,0.212,0.019,0.34,0.019c0.286,0,0.54,0.092,0.773,0.222C138.682,343.452,139.035,343.967,139.035,344.579z"/>
</g>
<g>
	<g>
		<path d="M546.749,60.708V40.226c0-1.064-0.483-2.017-1.244-2.645c-0.168-0.134-0.347-0.258-0.536-0.37
			c-0.483-0.258-1.043-0.415-1.637-0.415H495.5c-1.882,0-3.417,1.535-3.417,3.429v85.412c0,1.892,1.535,3.417,3.417,3.417h47.833
			c1.894,0,3.418-1.523,3.418-3.417v-25.121h-4.84v11.877h-44.987V42.355h44.985v18.353H546.749z M519.41,115.385
			c2.723,0,4.918,2.208,4.918,4.92s-2.195,4.908-4.918,4.908c-2.711,0-4.908-2.196-4.908-4.908S516.699,115.385,519.41,115.385z"/>
	</g>
	<g>
		<path d="M529.449,77.369v15.25c0,1.332-1.076,2.418-2.409,2.418h-15.249c-1.334,0-2.42-1.086-2.42-2.418v-15.25
			c0-1.333,1.086-2.42,2.42-2.42h15.249C528.373,74.949,529.449,76.036,529.449,77.369z"/>
	</g>
	<g>
		<path d="M585.819,52.932v20.034c0,1.759-1.425,3.182-3.171,3.182h-10.432v-8.952c0-3.574-2.913-6.488-6.487-6.488h-6.286v-7.776
			c0-1.748,1.423-3.17,3.171-3.17h20.034C584.396,49.761,585.819,51.184,585.819,52.932z"/>
	</g>
	<g>
		<path d="M569.976,67.195v20.728h-7.63c-2.565,0-4.649,2.096-4.649,4.661v5.692h-18.802c-2.353,0-4.246-1.894-4.246-4.247V67.195
			c0-2.342,1.894-4.247,4.246-4.247h26.835C568.071,62.949,569.976,64.854,569.976,67.195z"/>
	</g>
	<g>
		<path d="M580.004,92.584v15.249c0,1.334-1.075,2.421-2.409,2.421h-15.249c-1.333,0-2.409-1.087-2.409-2.421V92.584
			c0-1.333,1.076-2.42,2.409-2.42h15.249C578.929,90.165,580.004,91.251,580.004,92.584z"/>
	</g>
</g>
<g>
	<path d="M573.509,279.686c-5.678,0-10.434,3.881-11.796,9.132l-10.17-0.309c-0.683-4.635-2.737-8.813-5.748-12.12l12.851-18.106
		c1.185,0.676,2.555,1.068,4.018,1.068c4.491,0,8.134-3.642,8.134-8.134s-3.643-8.134-8.134-8.134s-8.134,3.641-8.134,8.134
		c0,2.034,0.751,3.888,1.984,5.313l-15.401,15.916c-3.571-2.271-7.795-3.605-12.341-3.605c-4.865,0-9.373,1.518-13.093,4.092
		l-11.015-10.59c0.675-1.303,1.061-2.778,1.061-4.347c0-5.241-4.248-9.489-9.489-9.489c-5.241,0-9.489,4.249-9.489,9.489
		c0,5.241,4.249,9.49,9.489,9.49c1.436,0,2.792-0.328,4.012-0.899l10.155,11.424c-2.923,3.864-4.678,8.659-4.678,13.876
		c0,3.405,0.758,6.627,2.084,9.536l-12.16,7.371c-2.383-2.08-5.492-3.35-8.903-3.35c-7.487,0-13.557,6.068-13.557,13.556
		c0,7.488,6.069,13.558,13.557,13.558s13.557-6.069,13.557-13.558c0-1.457-0.235-2.858-0.662-4.175l11.286-8.36
		c4.226,5.166,10.649,8.469,17.845,8.469c11.577,0,21.134-8.548,22.771-19.67l10.17-0.309c1.362,5.252,6.118,9.133,11.796,9.133
		c6.739,0,12.2-5.462,12.2-12.201C585.709,285.148,580.248,279.686,573.509,279.686z"/>
</g>
<g>
	<path d="M525.5,426.961c-28.246,0-51.144,3.287-51.144,7.343v22.388c0,4.055,22.898,7.344,51.144,7.344
		c28.244,0,51.145-3.289,51.145-7.344v-22.388C576.645,430.248,553.744,426.961,525.5,426.961z"/>
	<g>
		<path d="M525.5,474.26c-28.246,0-51.144-3.289-51.144-7.344v22.386c0,4.055,22.898,7.344,51.144,7.344
			c28.244,0,51.145-3.289,51.145-7.344v-22.386C576.645,470.971,553.744,474.26,525.5,474.26z"/>
	</g>
	<g>
		<path d="M525.5,506.864c-28.246,0-51.144-3.289-51.144-7.345v22.387c0,4.057,22.898,7.344,51.144,7.344
			c28.244,0,51.145-3.287,51.145-7.344v-22.386C576.645,503.575,553.744,506.864,525.5,506.864z"/>
	</g>
</g>
<line fill="none" stroke="#000000" stroke-width="5" stroke-linecap="round" stroke-miterlimit="10" x1="258" y1="293.5" x2="473" y2="293.5"/>
<line fill="none" stroke="#000000" stroke-width="5" stroke-linecap="round" stroke-miterlimit="10" x1="525.5" y1="243" x2="525.5" y2="141"/>
<line fill="none" stroke="#000000" stroke-width="5" stroke-linecap="round" stroke-miterlimit="10" x1="525.5" y1="339" x2="525.5" y2="405"/>
<text transform="matrix(1 0 0 1 609.668 284.8057)"><tspan x="0" y="0" font-family="'HelveticaNeue-Bold'" font-size="22.0814">Share</tspan><tspan x="61.363" y="0" font-family="'HelveticaNeue'" font-size="22.0814">X Flights</tspan><tspan x="0" y="28" font-family="'HelveticaNeue'" font-size="22.0814">Exchange Platform</tspan></text>
<text transform="matrix(1 0 0 1 609.668 80.6128)"><tspan x="0" y="0" font-family="'HelveticaNeue'" font-size="22.0814">Web applications and mobile apps</tspan><tspan x="0" y="28" font-family="'HelveticaNeue'" font-size="22.0814">for business and private sector</tspan></text>
<text transform="matrix(1 0 0 1 655.8945 490.3027)"><tspan x="0" y="0" font-family="'HelveticaNeue-Bold'" font-size="22.0814">SAP </tspan><tspan x="50.324" y="0" font-family="'HelveticaNeue'" font-size="22.0814">HANA</tspan></text>
<text transform="matrix(1 0 0 1 70.0244 415)"><tspan x="0" y="0" font-family="'HelveticaNeue-Bold'" font-size="22.0814">APIs:</tspan><tspan x="0" y="28" font-family="'HelveticaNeue'" font-size="22.0814">· Info provider for Finanzen100</tspan><tspan x="0" y="56" font-family="'HelveticaNeue'" font-size="22.0814">· Trading interface to banking &amp; </tspan><tspan x="0" y="84" font-family="'HelveticaNeue'" font-size="22.0814">  financial services industry</tspan><tspan x="0" y="112" font-family="'HelveticaNeue'" font-size="22.0814">· API to real-time prices</tspan></text>
<g>
	<path fill-rule="evenodd" clip-rule="evenodd" fill="#0C0804" d="M618.358,467.207c0.977,0.146,2.044,0.055,2.984-0.019
		c0.849-1.241-0.369-2.906,1.242-3.79c1.567,0.904,0.456,2.469,1.018,3.714c1.057,0.275,2.19,0.206,3.264,0.03
		c0.737-1.197-0.451-2.943,1.243-3.814c1.303,1.083,0.316,2.531,0.893,3.616c1.521,0.396,1.521,0.396,3.479,0.102
		c0.494-1.047-0.097-2.312,0.435-3.395c0.907-0.353,1.305,0.035,1.44,0.823c0.146,0.857-0.167,1.763,0.256,2.683
		c1.084,0.19,2.161,0.112,3.157,0.075c0.822-1.225-0.462-2.972,1.189-3.852c1.586,0.954,0.378,2.574,1.061,3.664
		c2.363,0.462,2.363,0.462,2.719,3.131c0.807,0,1.667-0.009,2.527,0.002c0.779,0.01,1.263,0.309,1.138,1.244
		c-1.146,0.771-2.477,0.105-3.742,0.552c0,1.134,0,2.29,0,3.528c1.108,0.567,2.45-0.114,3.539,0.406
		c0.389,0.681,0.221,1.17-0.418,1.239c-0.947,0.101-1.914,0.025-2.759,0.025c-0.681,0.551-0.436,1.185-0.469,1.747
		c-0.034,0.588-0.007,1.179-0.007,1.754c1.213,0.853,2.73-0.09,3.955,0.859c-0.673,2.177-2.585,0.662-3.823,1.554
		c-0.31,0.904-0.099,2.048-0.089,3.397c1.091,0,2.037-0.021,2.98,0.009c0.508,0.016,0.837,0.36,0.843,0.849
		c0.005,0.502-0.358,0.812-0.854,0.829c-0.941,0.031-1.885,0.009-2.915,0.009c0,1.296,0,2.371,0,3.44
		c1.172,0.666,2.596-0.316,3.615,0.698c0.211,0.21,0.258,0.526,0.034,0.967c-1.009,0.719-2.351,0.005-3.499,0.438
		c-0.744,2.792-0.381,2.136-2.742,2.625c-0.415,0.51-0.187,1.124-0.223,1.692c-0.038,0.585-0.009,1.175-0.009,1.611
		c-0.489,0.643-0.931,0.74-1.58,0.289c-0.441-1.071,0.085-2.374-0.312-3.644c-1.118,0-2.191,0-3.472,0
		c-0.029,0.99-0.039,1.923-0.091,2.855c-0.045,0.812-0.428,1.239-1.385,0.983c-0.648-1.113-0.061-2.425-0.433-3.754
		c-1.1-0.346-2.259-0.161-3.455-0.117c-0.611,1.188,0.061,2.514-0.477,3.79c-0.676,0.33-1.297,0.249-1.415-0.628
		c-0.125-0.942-0.028-1.915-0.028-2.897c-1.215-0.571-2.366-0.279-3.636-0.287c-0.077,1.312-0.147,2.531-0.22,3.76
		c-1.039,0.436-1.538,0.1-1.601-0.853c-0.057-0.876-0.012-1.76-0.012-2.667c-1.149-0.551-2.263-0.112-3.336-0.338
		c-0.773,1.291,0.092,2.739-0.621,3.926c-0.808,0.353-1.351,0.13-1.419-0.74c-0.075-0.947-0.017-1.906-0.017-2.796
		c-0.712-0.605-1.551-0.139-2.184-0.639c-0.723-0.569-0.337-1.383-0.626-2.133c-1.132-0.462-2.448,0.107-3.64-0.366
		c-0.396-1.015,0.032-1.461,0.944-1.52c0.868-0.055,1.741-0.011,2.715-0.011c0-1.262,0-2.337,0-3.593
		c-0.969-0.032-1.91-0.023-2.842-0.107c-0.801-0.073-1.221-0.487-0.852-1.4c1.111-0.711,2.453,0.02,3.705-0.5
		c0-1.072,0-2.149,0-3.406c-0.973-0.042-1.908-0.053-2.836-0.133c-0.796-0.069-1.244-0.447-0.881-1.394
		c1.082-0.567,2.305-0.1,3.565-0.358c0.482-1.143,0.235-2.345,0.137-3.666c-1.274-0.07-2.435-0.136-3.613-0.201
		c-0.377-0.691-0.37-1.252,0.454-1.336c1.009-0.102,2.035-0.024,3.104-0.024c0.246-1.402,0.178-2.552,0.112-3.775
		c-1.262-0.41-2.565,0.105-3.687-0.345c-0.507-0.979-0.02-1.356,0.756-1.424c0.88-0.075,1.771-0.018,2.575-0.018
		c0.752-0.746,0.133-1.691,0.451-2.156c0.736-0.998,1.684-0.585,2.385-0.877c0.716-1.151-0.483-2.768,1.067-3.734
		C618.88,464.203,617.477,466.007,618.358,467.207z M639.688,493.412c0.35-3.144,0.24-21.832-0.118-23.365
		c-7.672,0-15.347,0-23.14,0c0,7.808,0,15.532,0,23.365C624.206,493.412,631.875,493.412,639.688,493.412z"/>
	<path fill-rule="evenodd" clip-rule="evenodd" fill="#020101" d="M618.593,490.598c0-5.882,0-11.914,0-17.796
		c0.497-0.599,1.013-0.628,1.538-0.628c5.323,0.001,10.647,0.001,15.972,0.008c0.366,0.001,0.745-0.012,1.205,0.358
		c0.48,0.456,0.337,1.226,0.338,1.952c0.006,4.807,0.013,9.613-0.001,14.42c-0.006,2.2-0.182,2.369-2.44,2.377
		c-4.808,0.016-9.614,0.009-14.42,0.01C620.049,491.299,619.29,491.385,618.593,490.598z"/>
</g>
<text transform="matrix(1 0 0 1 609.668 450.3809)" font-family="'HelveticaNeue'" font-size="22.0814">In-Memory Database</text>
</svg>
