<?xml version="1.0" encoding="utf-8"?>
<!-- Generator: Adobe Illustrator 16.0.0, SVG Export Plug-In . SVG Version: 6.00 Build 0)  -->
<!DOCTYPE svg PUBLIC "-//W3C//DTD SVG 1.1//EN" "http://www.w3.org/Graphics/SVG/1.1/DTD/svg11.dtd">
<svg version="1.1" id="Ebene_1" xmlns="http://www.w3.org/2000/svg" xmlns:xlink="http://www.w3.org/1999/xlink" x="0px" y="0px"
	 width="800px" height="600px" viewBox="0 0 800 600" enable-background="new 0 0 800 600" xml:space="preserve">
<path d="M667.223,598.566c-38.569,0-72.866-18.509-94.79-47.219l-151.665,25.18H410.19h-21.166l-158.019-29.095
	c-21.732,30.937-57.363,51.134-97.66,51.134c-66.205,0-119.873-54.454-119.873-121.631c0-42.003,20.983-79.037,52.9-100.894V35.555
	V14.13V3.417L389.024,56.98h31.734L743.408,3.417v5.357v26.78V383.03c26.678,22.308,43.679,56.087,43.679,93.897
	C787.096,544.112,733.428,598.566,667.223,598.566z M56.342,466.148v22.318h153.297v-22.318H56.342z M389.024,89.118L98.106,35.555
	v325.092c11.145-3.477,22.971-5.35,35.239-5.35c66.213,0,119.882,54.457,119.882,121.631c0,14.447-2.496,28.299-7.056,41.15
	l142.853,26.302V89.118z M711.687,35.555L420.768,89.118v455.273l134.215-24.708c-4.924-13.307-7.632-27.703-7.632-42.747
	c0-67.173,53.667-121.628,119.882-121.628c15.715,0,30.707,3.101,44.463,8.679V35.555H711.687z M678.117,466.148v-66.216h-21.799
	v66.216h-66.117v22.318h66.117v66.214h21.799v-66.214h65.391v-22.318H678.117z M447.213,303.368l232.739-42.85V287.3
	l-232.739,42.849V303.368z M447.213,223.024l232.739-42.851v26.781l-232.739,42.851V223.024z M447.213,142.68l232.739-42.85v26.782
	l-232.739,42.85V142.68z M119.264,260.518L352,303.368v26.78L119.263,287.3L119.264,260.518L119.264,260.518z M119.264,180.173
	L352,223.024v26.781l-232.738-42.851L119.264,180.173L119.264,180.173z M119.264,99.83L352,142.68v26.782l-232.738-42.85
	L119.264,99.83L119.264,99.83z"/>
</svg>
