<?xml version="1.0" encoding="utf-8"?>
<!-- Generator: Adobe Illustrator 16.0.0, SVG Export Plug-In . SVG Version: 6.00 Build 0)  -->
<!DOCTYPE svg PUBLIC "-//W3C//DTD SVG 1.1//EN" "http://www.w3.org/Graphics/SVG/1.1/DTD/svg11.dtd">
<svg version="1.1" id="Ebene_1" xmlns="http://www.w3.org/2000/svg" xmlns:xlink="http://www.w3.org/1999/xlink" x="0px" y="0px"
	 width="800px" height="600px" viewBox="0 0 800 600" enable-background="new 0 0 800 600" xml:space="preserve">
<g>
	<path d="M687.04,246.565c-37.296,0-68.538,25.497-77.489,59.99l-66.812-2.03c-4.479-30.449-17.979-57.898-37.76-79.619
		l84.419-118.947c7.783,4.444,16.787,7.018,26.397,7.018c29.504,0,53.435-23.922,53.435-53.436
		c0-29.514-23.931-53.435-53.435-53.435c-29.506,0-53.435,23.921-53.435,53.435c0,13.359,4.933,25.542,13.035,34.903
		L474.218,198.998c-23.459-14.916-51.208-23.681-81.07-23.681c-31.963,0-61.576,9.967-86.013,26.879l-72.36-69.572
		c4.434-8.56,6.973-18.249,6.973-28.553c0-34.43-27.912-62.341-62.341-62.341s-62.341,27.912-62.341,62.341
		c0,34.431,27.912,62.341,62.341,62.341c9.431,0,18.337-2.155,26.352-5.905l66.714,75.05c-19.202,25.382-30.725,56.882-30.725,91.16
		c0,22.372,4.978,43.532,13.688,62.645l-79.886,48.421c-15.656-13.661-36.078-22.005-58.485-22.005
		c-49.187,0-89.059,39.87-89.059,89.058c0,49.187,39.873,89.06,89.059,89.06s89.059-39.873,89.059-89.06
		c0-9.573-1.549-18.784-4.346-27.43l74.141-54.922c27.759,33.94,69.956,55.634,117.229,55.634
		c76.056,0,138.834-56.151,149.591-129.215l66.812-2.031c8.951,34.502,40.193,59.998,77.489,59.998
		c44.272,0,80.153-35.881,80.153-80.152C767.193,282.446,731.312,246.565,687.04,246.565z"/>
</g>
</svg>
