<?xml version="1.0" encoding="utf-8"?>
<!-- Generator: Adobe Illustrator 16.0.0, SVG Export Plug-In . SVG Version: 6.00 Build 0)  -->
<!DOCTYPE svg PUBLIC "-//W3C//DTD SVG 1.1//EN" "http://www.w3.org/Graphics/SVG/1.1/DTD/svg11.dtd">
<svg version="1.1" id="Ebene_1" xmlns="http://www.w3.org/2000/svg" xmlns:xlink="http://www.w3.org/1999/xlink" x="0px" y="0px"
	 width="800px" height="600px" viewBox="0 0 800 600" enable-background="new 0 0 800 600" xml:space="preserve">
<path d="M5,0v600h790.322V0H5z M659.348,27.704h20.729c2.461,0,4.457,1.996,4.457,4.455c0,2.46-1.996,4.456-4.457,4.456h-20.729
	c-2.46,0-4.448-1.987-4.448-4.456C654.899,29.691,656.888,27.704,659.348,27.704z M107.997,407.084h590.399v22.452H107.997V407.084z
	 M82.645,134.734c0-33.336,27.024-60.369,60.369-60.369c33.335,0,60.368,27.024,60.368,60.369c0,33.335-27.033,60.369-60.368,60.369
	C109.669,195.103,82.645,168.069,82.645,134.734z M107.997,381.864v-13.068h590.399v13.068H107.997z M107.997,331.409v-16.108
	h590.399v16.101H107.997V331.409z M107.997,281.452V236.24h590.399v45.212H107.997z M617.878,27.704h20.73
	c2.46,0,4.455,1.996,4.455,4.455c0,2.46-1.995,4.456-4.455,4.456h-20.73c-2.46,0-4.446-1.987-4.446-4.456
	C613.432,29.691,615.427,27.704,617.878,27.704z M576.41,27.704h20.737c2.469,0,4.457,1.996,4.457,4.455
	c0,2.46-1.988,4.456-4.457,4.456H576.41c-2.46,0-4.448-1.987-4.448-4.456C571.962,29.691,573.95,27.704,576.41,27.704z
	 M534.94,27.704h20.739c2.468,0,4.455,1.996,4.455,4.455c0,2.46-1.987,4.456-4.455,4.456H534.94c-2.459,0-4.447-1.987-4.447-4.456
	C530.493,29.691,532.481,27.704,534.94,27.704z M493.473,27.704h20.738c2.467,0,4.455,1.996,4.455,4.455
	c0,2.46-1.988,4.456-4.455,4.456h-20.738c-2.461,0-4.449-1.987-4.449-4.456C489.023,29.691,491.012,27.704,493.473,27.704z
	 M452.011,27.704h20.723c2.469,0,4.457,1.996,4.457,4.455c0,2.46-1.988,4.456-4.457,4.456h-20.723c-2.467,0-4.455-1.987-4.455-4.456
	C447.556,29.691,449.544,27.704,452.011,27.704z M410.534,27.704h20.739c2.459,0,4.447,1.996,4.447,4.455
	c0,2.46-1.988,4.456-4.447,4.456h-20.739c-2.459,0-4.447-1.987-4.447-4.456C406.087,29.691,408.075,27.704,410.534,27.704z
	 M369.066,27.704h20.73c2.468,0,4.464,1.987,4.464,4.447c0,2.46-1.988,4.456-4.456,4.456h-20.73c-2.459,0-4.455-1.988-4.455-4.456
	C364.619,29.691,366.615,27.704,369.066,27.704z M327.598,27.704h20.738c2.46,0,4.456,1.996,4.456,4.455
	c0,2.46-1.987,4.456-4.456,4.456h-20.738c-2.46,0-4.456-1.987-4.456-4.456C323.15,29.691,325.138,27.704,327.598,27.704z
	 M286.129,27.704h20.73c2.46,0,4.456,1.996,4.456,4.455c0,2.46-1.988,4.456-4.456,4.456h-20.73c-2.46,0-4.448-1.987-4.448-4.456
	C281.681,29.691,283.669,27.704,286.129,27.704z M244.668,27.704h20.73c2.46,0,4.447,1.996,4.447,4.455
	c0,2.46-1.987,4.456-4.447,4.456h-20.73c-2.46,0-4.456-1.987-4.456-4.456C240.212,29.691,242.208,27.704,244.668,27.704z
	 M231.905,74.365h366.892v20.117H231.905V74.365z M565.867,124.671v20.126h-301.04v-20.126H565.867z M231.905,185.834h366.892
	v20.805H231.905V185.834z M203.2,27.704h20.73c2.459,0,4.455,1.996,4.455,4.455c0,2.46-1.996,4.456-4.455,4.456H203.2
	c-2.46,0-4.456-1.987-4.456-4.456C198.744,29.691,200.732,27.704,203.2,27.704z M161.731,27.704h20.73
	c2.459,0,4.456,1.996,4.456,4.455c0,2.46-1.997,4.456-4.456,4.456h-20.73c-2.459,0-4.456-1.987-4.456-4.456
	C157.275,29.691,159.263,27.704,161.731,27.704z M120.262,27.704h20.739c2.459,0,4.456,1.996,4.456,4.455
	c0,2.46-1.997,4.456-4.456,4.456h-20.739c-2.459,0-4.456-1.987-4.456-4.456C115.807,29.691,117.794,27.704,120.262,27.704z
	 M42.924,63.408c0-2.459,1.987-4.455,4.456-4.455c2.46,0,4.456,1.987,4.456,4.455V83.98c0,2.46-1.996,4.456-4.456,4.456
	c-2.46,0-4.456-1.996-4.456-4.456V63.408z M42.924,104.562c0-2.46,1.987-4.456,4.456-4.456c2.46,0,4.456,1.996,4.456,4.456v20.572
	c0,2.46-1.996,4.456-4.456,4.456c-2.46,0-4.456-1.987-4.456-4.456V104.562z M42.924,145.699c0-2.459,1.987-4.456,4.456-4.456
	c2.46,0,4.456,1.997,4.456,4.456v20.573c0,2.46-1.996,4.456-4.456,4.456c-2.46,0-4.456-1.988-4.456-4.456V145.699z M42.924,186.853
	c0-2.459,1.987-4.456,4.456-4.456c2.46,0,4.456,1.988,4.456,4.456v20.573c0,2.46-1.996,4.456-4.456,4.456
	c-2.46,0-4.456-1.996-4.456-4.456V186.853z M42.924,227.991c0-2.46,1.987-4.456,4.456-4.456c2.46,0,4.456,1.988,4.456,4.456v20.573
	c0,2.459-1.996,4.456-4.456,4.456c-2.46,0-4.456-1.988-4.456-4.456V227.991z M42.924,269.136c0-2.459,1.987-4.455,4.456-4.455
	c2.46,0,4.456,1.996,4.456,4.455v20.573c0,2.46-1.996,4.456-4.456,4.456c-2.46,0-4.456-1.996-4.456-4.456V269.136z M42.924,310.291
	c0-2.461,1.987-4.456,4.456-4.456c2.46,0,4.456,1.995,4.456,4.456v20.564c0,2.468-1.996,4.455-4.456,4.455
	c-2.46,0-4.456-1.987-4.456-4.455V310.291z M42.924,351.436c0-2.46,1.987-4.456,4.456-4.456c2.46,0,4.456,1.996,4.456,4.456V372
	c0,2.468-1.996,4.456-4.456,4.456c-2.46,0-4.456-1.988-4.456-4.456V351.436z M42.924,392.573c0-2.46,1.987-4.447,4.456-4.447
	c2.46,0,4.456,1.987,4.456,4.447v20.572c0,2.46-1.996,4.448-4.456,4.448c-2.46,0-4.456-1.988-4.456-4.448V392.573z M42.924,433.72
	c0-2.46,1.987-4.448,4.456-4.448c2.46,0,4.456,1.988,4.456,4.448v20.572c0,2.46-1.996,4.446-4.456,4.446
	c-2.46,0-4.456-1.986-4.456-4.446V433.72z M42.924,474.864c0-2.46,1.987-4.446,4.456-4.446c2.46,0,4.456,1.986,4.456,4.446v20.574
	c0,2.458-1.996,4.446-4.456,4.446c-2.46,0-4.456-1.988-4.456-4.446V474.864z M42.924,516.019c0-2.468,1.987-4.455,4.456-4.455
	c2.46,0,4.456,1.987,4.456,4.455v20.565c0,2.46-1.996,4.455-4.456,4.455c-2.46,0-4.456-1.995-4.456-4.455V516.019z M58.055,572.296
	H47.371c-2.459,0-4.456-1.988-4.456-4.449v-10.683c0-2.467,1.988-4.455,4.456-4.455c2.46,0,4.456,1.988,4.456,4.455v6.228h6.228
	c2.46,0,4.456,1.995,4.456,4.455C62.511,570.308,60.523,572.296,58.055,572.296z M58.055,36.607h-6.228v6.236
	c0,2.46-1.996,4.448-4.456,4.448s-4.456-1.987-4.456-4.448V32.151c0-2.459,1.988-4.455,4.456-4.455h10.684
	c2.46,0,4.456,1.996,4.456,4.455C62.511,34.619,60.523,36.607,58.055,36.607z M78.794,27.704h20.73c2.46,0,4.456,1.996,4.456,4.455
	c0,2.46-1.988,4.456-4.456,4.456h-20.73c-2.46,0-4.456-1.987-4.456-4.456C74.338,29.691,76.334,27.704,78.794,27.704z
	 M99.532,572.296H78.794c-2.46,0-4.456-1.988-4.456-4.449c0-2.46,1.996-4.455,4.456-4.455h20.73c2.46,0,4.456,1.995,4.456,4.455
	C103.98,570.308,101.992,572.296,99.532,572.296z M140.993,572.296h-20.73c-2.459,0-4.456-1.988-4.456-4.449
	c0-2.46,1.996-4.455,4.456-4.455h20.73c2.46,0,4.456,1.995,4.456,4.455C145.449,570.308,143.453,572.296,140.993,572.296z
	 M182.47,572.296h-20.739c-2.459,0-4.456-1.988-4.456-4.449c0-2.46,1.988-4.455,4.456-4.455h20.739c2.459,0,4.455,1.995,4.455,4.455
	C186.925,570.308,184.929,572.296,182.47,572.296z M223.938,572.296h-20.73c-2.46,0-4.456-1.988-4.456-4.449
	c0-2.46,1.988-4.455,4.456-4.455h20.73c2.46,0,4.456,1.995,4.456,4.455C228.394,570.308,226.39,572.296,223.938,572.296z
	 M265.398,572.296h-20.73c-2.46,0-4.456-1.988-4.456-4.449c0-2.46,1.988-4.455,4.456-4.455h20.73c2.46,0,4.447,1.995,4.447,4.455
	C269.846,570.308,267.858,572.296,265.398,572.296z M281.011,521.361H107.997v-11.687h173.014V521.361z M281.011,497.6H107.997
	v-11.687h173.014V497.6z M306.867,572.296h-20.73c-2.46,0-4.456-1.988-4.456-4.449c0-2.46,1.988-4.455,4.456-4.455h20.73
	c2.46,0,4.456,1.995,4.456,4.455C311.323,570.308,309.336,572.296,306.867,572.296z M348.336,572.296h-20.729
	c-2.46,0-4.448-1.988-4.448-4.449c0-2.46,1.987-4.455,4.448-4.455h20.729c2.46,0,4.456,1.995,4.456,4.455
	C352.792,570.308,350.796,572.296,348.336,572.296z M389.805,572.296h-20.73c-2.459,0-4.455-1.988-4.455-4.449
	c0-2.46,1.996-4.455,4.455-4.455h20.73c2.459,0,4.456,1.995,4.456,4.455C394.261,570.308,392.272,572.296,389.805,572.296z
	 M431.282,572.296h-20.748c-2.459,0-4.447-1.988-4.447-4.449c0-2.46,1.988-4.455,4.447-4.455h20.748c2.46,0,4.446,1.995,4.446,4.455
	C435.729,570.308,433.742,572.296,431.282,572.296z M472.75,572.296h-20.739c-2.467,0-4.455-1.988-4.455-4.449
	c0-2.46,1.988-4.455,4.455-4.455h20.739c2.46,0,4.448,1.995,4.448,4.455C477.198,570.308,475.21,572.296,472.75,572.296z
	 M514.211,572.296h-20.738c-2.461,0-4.449-1.988-4.449-4.449c0-2.46,1.988-4.455,4.449-4.455h20.738
	c2.467,0,4.455,1.995,4.455,4.455C518.666,570.308,516.678,572.296,514.211,572.296z M555.68,572.296h-20.73
	c-2.459,0-4.447-1.988-4.447-4.449c0-2.46,1.988-4.455,4.447-4.455h20.73c2.468,0,4.455,1.995,4.455,4.455
	C560.135,570.308,558.147,572.296,555.68,572.296z M597.147,572.296h-20.729c-2.46,0-4.448-1.988-4.448-4.449
	c0-2.46,1.988-4.455,4.448-4.455h20.729c2.469,0,4.457,1.995,4.457,4.455C601.604,570.308,599.607,572.296,597.147,572.296z
	 M638.617,572.296h-20.739c-2.46,0-4.446-1.988-4.446-4.449c0-2.46,1.986-4.455,4.446-4.455h20.739c2.469,0,4.455,1.995,4.455,4.455
	C643.072,570.308,641.086,572.296,638.617,572.296z M595.476,497.6c0-28.433,23.041-51.473,51.466-51.473
	c28.416,0,51.466,23.04,51.466,51.473c0,28.426-23.05,51.467-51.466,51.467S595.476,526.025,595.476,497.6z M680.085,572.296
	h-20.737c-2.46,0-4.448-1.988-4.448-4.449c0-2.46,1.988-4.455,4.448-4.455h20.737c2.46,0,4.457,1.995,4.457,4.455
	C684.542,570.308,682.545,572.296,680.085,572.296z M721.556,572.296h-20.739c-2.46,0-4.448-1.988-4.448-4.449
	c0-2.46,1.988-4.455,4.448-4.455h20.739c2.46,0,4.455,1.995,4.455,4.455C726.011,570.308,724.016,572.296,721.556,572.296z
	 M721.556,36.607h-20.739c-2.46,0-4.448-1.988-4.448-4.456c0-2.459,1.988-4.455,4.448-4.455h20.739c2.46,0,4.455,1.996,4.455,4.455
	C726.011,34.619,724.016,36.607,721.556,36.607z M757.423,567.84c0,2.461-1.985,4.449-4.455,4.449h-10.684
	c-2.46,0-4.448-1.988-4.448-4.449c0-2.46,1.988-4.455,4.448-4.455h6.238v-6.228c0-2.47,1.985-4.458,4.445-4.458
	c2.47,0,4.455,1.988,4.455,4.458V567.84z M757.423,536.584c0,2.46-1.985,4.455-4.455,4.455c-2.46,0-4.445-1.995-4.445-4.455v-20.565
	c0-2.468,1.985-4.455,4.445-4.455c2.47,0,4.455,1.987,4.455,4.455V536.584z M757.423,495.438c0,2.458-1.985,4.446-4.455,4.446
	c-2.46,0-4.445-1.988-4.445-4.446v-20.574c0-2.46,1.985-4.446,4.445-4.446c2.47,0,4.455,1.986,4.455,4.446V495.438z
	 M757.423,454.301c0,2.46-1.985,4.446-4.455,4.446c-2.46,0-4.445-1.986-4.445-4.446v-20.574c0-2.459,1.985-4.447,4.445-4.447
	c2.47,0,4.455,1.988,4.455,4.447V454.301z M757.423,413.154c0,2.46-1.985,4.448-4.455,4.448c-2.46,0-4.445-1.988-4.445-4.448
	v-20.581c0-2.46,1.985-4.447,4.445-4.447c2.47,0,4.455,1.987,4.455,4.447V413.154z M757.423,372c0,2.468-1.985,4.456-4.455,4.456
	c-2.46,0-4.445-1.988-4.445-4.456v-20.564c0-2.46,1.985-4.456,4.445-4.456c2.47,0,4.455,1.996,4.455,4.456V372z M757.423,330.855
	c0,2.468-1.985,4.455-4.455,4.455c-2.46,0-4.445-1.987-4.445-4.455v-20.564c0-2.461,1.985-4.456,4.445-4.456
	c2.47,0,4.455,1.995,4.455,4.456V330.855z M757.423,289.709c0,2.46-1.985,4.456-4.455,4.456c-2.46,0-4.445-1.996-4.445-4.456
	v-20.573c0-2.459,1.985-4.455,4.445-4.455c2.47,0,4.455,1.996,4.455,4.455V289.709z M757.423,248.572
	c0,2.459-1.985,4.455-4.455,4.455c-2.46,0-4.445-1.987-4.445-4.455v-20.573c0-2.46,1.985-4.456,4.445-4.456
	c2.47,0,4.455,1.987,4.455,4.456V248.572z M757.423,207.426c0,2.46-1.985,4.456-4.455,4.456c-2.46,0-4.445-1.996-4.445-4.456
	v-20.573c0-2.459,1.985-4.456,4.445-4.456c2.47,0,4.455,1.988,4.455,4.456V207.426z M757.423,166.272
	c0,2.46-1.985,4.456-4.455,4.456c-2.46,0-4.445-1.988-4.445-4.456v-20.573c0-2.459,1.985-4.456,4.445-4.456
	c2.47,0,4.455,1.997,4.455,4.456V166.272z M757.423,125.126c0,2.46-1.985,4.456-4.455,4.456c-2.46,0-4.445-1.987-4.445-4.456
	v-20.572c0-2.46,1.985-4.456,4.445-4.456c2.47,0,4.455,1.996,4.455,4.456V125.126z M757.423,83.989c0,2.459-1.985,4.456-4.455,4.456
	c-2.46,0-4.445-1.997-4.445-4.456V63.416c0-2.46,1.985-4.456,4.445-4.456c2.47,0,4.455,1.988,4.455,4.456V83.989z M757.423,42.843
	c0,2.46-1.985,4.448-4.455,4.448c-2.46,0-4.445-1.987-4.445-4.448v-6.236h-6.238c-2.46,0-4.448-1.988-4.448-4.456
	c0-2.459,1.988-4.455,4.448-4.455h10.684c2.47,0,4.455,1.996,4.455,4.455V42.843z"/>
<path d="M243.051,163.895v-5.928c-4.181-0.187-8.237-1.311-10.608-2.683l1.872-7.301c2.621,1.435,6.302,2.746,10.358,2.746
	c3.557,0,5.99-1.373,5.99-3.869c0-2.371-1.997-3.869-6.614-5.429c-6.677-2.246-11.232-5.366-11.232-11.419
	c0-5.491,3.869-9.797,10.545-11.107v-5.928h6.115v5.491c4.181,0.187,6.989,1.061,9.048,2.059l-1.81,7.051
	c-1.623-0.687-4.498-2.122-8.986-2.122c-4.056,0-5.366,1.747-5.366,3.494c0,2.059,2.184,3.37,7.488,5.367
	c7.426,2.621,10.421,6.053,10.421,11.668c0,5.554-3.931,10.296-11.107,11.544v6.365H243.051z"/>
</svg>
